<svg width="12" height="12" viewBox="0 0 12 12" fill="none" xmlns="http://www.w3.org/2000/svg">
<path d="M10.875 9.75C10.875 9.84946 10.8355 9.94484 10.7652 10.0152C10.6948 10.0855 10.5995 10.125 10.5 10.125H1.5C1.40054 10.125 1.30516 10.0855 1.23483 10.0152C1.16451 9.94484 1.125 9.84946 1.125 9.75V2.25C1.125 2.15054 1.16451 2.05516 1.23483 1.98484C1.30516 1.91451 1.40054 1.875 1.5 1.875C1.59946 1.875 1.69484 1.91451 1.76516 1.98484C1.83549 2.05516 1.875 2.15054 1.875 2.25V7.34484L4.23469 4.98469C4.26951 4.94982 4.31087 4.92216 4.3564 4.90329C4.40192 4.88442 4.45072 4.8747 4.5 4.8747C4.54928 4.8747 4.59808 4.88442 4.6436 4.90329C4.68913 4.92216 4.73049 4.94982 4.76531 4.98469L6 6.21984L8.46984 3.75H7.5C7.40054 3.75 7.30516 3.71049 7.23483 3.64016C7.16451 3.56984 7.125 3.47446 7.125 3.375C7.125 3.27554 7.16451 3.18016 7.23483 3.10984C7.30516 3.03951 7.40054 3 7.5 3H9.375C9.47446 3 9.56984 3.03951 9.64017 3.10984C9.71049 3.18016 9.75 3.27554 9.75 3.375V5.25C9.75 5.34946 9.71049 5.44484 9.64017 5.51516C9.56984 5.58549 9.47446 5.625 9.375 5.625C9.27554 5.625 9.18016 5.58549 9.10983 5.51516C9.03951 5.44484 9 5.34946 9 5.25V4.28016L6.26531 7.01531C6.23049 7.05018 6.18913 7.07784 6.1436 7.09671C6.09808 7.11558 6.04928 7.12529 6 7.12529C5.95072 7.12529 5.90192 7.11558 5.8564 7.09671C5.81087 7.07784 5.76951 7.05018 5.73469 7.01531L4.5 5.78016L1.875 8.40516V9.375H10.5C10.5995 9.375 10.6948 9.41451 10.7652 9.48483C10.8355 9.55516 10.875 9.65054 10.875 9.75Z" fill="#129A37"/>
</svg>
