<svg width="28" height="18" viewBox="0 0 28 18" fill="none" xmlns="http://www.w3.org/2000/svg">
<path d="M8 5C8 5.26522 7.89464 5.51957 7.70711 5.70711C7.51957 5.89464 7.26522 6 7 6H1C0.734784 6 0.48043 5.89464 0.292893 5.70711C0.105357 5.51957 0 5.26522 0 5C0 4.73478 0.105357 4.48043 0.292893 4.29289C0.48043 4.10536 0.734784 4 1 4H7C7.26522 4 7.51957 4.10536 7.70711 4.29289C7.89464 4.48043 8 4.73478 8 5ZM17 8H11C10.7348 8 10.4804 8.10536 10.2929 8.29289C10.1054 8.48043 10 8.73478 10 9C10 9.26522 10.1054 9.51957 10.2929 9.70711C10.4804 9.89464 10.7348 10 11 10H17C17.2652 10 17.5196 9.89464 17.7071 9.70711C17.8946 9.51957 18 9.26522 18 9C18 8.73478 17.8946 8.48043 17.7071 8.29289C17.5196 8.10536 17.2652 8 17 8ZM21 2H27C27.2652 2 27.5196 1.89464 27.7071 1.70711C27.8946 1.51957 28 1.26522 28 1C28 0.734784 27.8946 0.48043 27.7071 0.292893C27.5196 0.105357 27.2652 0 27 0H21C20.7348 0 20.4804 0.105357 20.2929 0.292893C20.1054 0.48043 20 0.734784 20 1C20 1.26522 20.1054 1.51957 20.2929 1.70711C20.4804 1.89464 20.7348 2 21 2ZM7 8H1C0.734784 8 0.48043 8.10536 0.292893 8.29289C0.105357 8.48043 0 8.73478 0 9V17C0 17.2652 0.105357 17.5196 0.292893 17.7071C0.48043 17.8946 0.734784 18 1 18H7C7.26522 18 7.51957 17.8946 7.70711 17.7071C7.89464 17.5196 8 17.2652 8 17V9C8 8.73478 7.89464 8.48043 7.70711 8.29289C7.51957 8.10536 7.26522 8 7 8ZM27 4H21C20.7348 4 20.4804 4.10536 20.2929 4.29289C20.1054 4.48043 20 4.73478 20 5V17C20 17.2652 20.1054 17.5196 20.2929 17.7071C20.4804 17.8946 20.7348 18 21 18H27C27.2652 18 27.5196 17.8946 27.7071 17.7071C27.8946 17.5196 28 17.2652 28 17V5C28 4.73478 27.8946 4.48043 27.7071 4.29289C27.5196 4.10536 27.2652 4 27 4ZM17 12H11C10.7348 12 10.4804 12.1054 10.2929 12.2929C10.1054 12.4804 10 12.7348 10 13V17C10 17.2652 10.1054 17.5196 10.2929 17.7071C10.4804 17.8946 10.7348 18 11 18H17C17.2652 18 17.5196 17.8946 17.7071 17.7071C17.8946 17.5196 18 17.2652 18 17V13C18 12.7348 17.8946 12.4804 17.7071 12.2929C17.5196 12.1054 17.2652 12 17 12Z" fill="#FB6514"/>
</svg>
