<svg width="32" height="32" viewBox="0 0 32 32" fill="none" xmlns="http://www.w3.org/2000/svg">
<path opacity="0.2" d="M28 16C28 18.3734 27.2962 20.6935 25.9776 22.6668C24.6591 24.6402 22.7849 26.1783 20.5922 27.0866C18.3995 27.9948 15.9867 28.2324 13.6589 27.7694C11.3311 27.3064 9.19295 26.1635 7.51472 24.4853C5.83649 22.8071 4.6936 20.6689 4.23057 18.3411C3.76755 16.0133 4.00519 13.6005 4.91344 11.4078C5.82169 9.21509 7.35977 7.34094 9.33316 6.02236C11.3065 4.70379 13.6266 4 16 4C19.1826 4 22.2348 5.26428 24.4853 7.51472C26.7357 9.76515 28 12.8174 28 16Z" fill="#038C8C"/>
<path d="M16 3C13.4288 3 10.9154 3.76244 8.77759 5.1909C6.63975 6.61935 4.9735 8.64968 3.98956 11.0251C3.00563 13.4006 2.74818 16.0144 3.24979 18.5362C3.7514 21.0579 4.98953 23.3743 6.80761 25.1924C8.62569 27.0105 10.9421 28.2486 13.4638 28.7502C15.9856 29.2518 18.5994 28.9944 20.9749 28.0104C23.3503 27.0265 25.3806 25.3603 26.8091 23.2224C28.2376 21.0846 29 18.5712 29 16C28.9964 12.5533 27.6255 9.24882 25.1884 6.81163C22.7512 4.37445 19.4467 3.00364 16 3ZM26.9537 15H21.975C21.7987 11.4425 20.6912 8.06625 18.835 5.375C21.009 5.95867 22.9523 7.1938 24.4036 8.91443C25.855 10.6351 26.7449 12.7587 26.9537 15ZM12.0287 17H19.9712C19.7612 20.8587 18.3462 24.4525 16 26.9862C13.6587 24.4525 12.2387 20.8587 12.0287 17ZM12.0287 15C12.2387 11.1412 13.6537 7.5475 16 5.01375C18.3412 7.5475 19.7612 11.1388 19.9712 15H12.0287ZM13.165 5.375C11.3087 8.06625 10.2012 11.4425 10.025 15H5.04625C5.2551 12.7587 6.14501 10.6351 7.59636 8.91443C9.04772 7.1938 10.991 5.95867 13.165 5.375ZM5.04625 17H10.025C10.2012 20.5575 11.3087 23.9338 13.165 26.625C10.991 26.0413 9.04772 24.8062 7.59636 23.0856C6.14501 21.3649 5.2551 19.2413 5.04625 17ZM18.835 26.625C20.6912 23.93 21.7987 20.5537 21.975 17H26.9537C26.7449 19.2413 25.855 21.3649 24.4036 23.0856C22.9523 24.8062 21.009 26.0413 18.835 26.625Z" fill="#002C43"/>
</svg>
