<svg width="12" height="12" viewBox="0 0 12 12" fill="none" xmlns="http://www.w3.org/2000/svg">
<path d="M10.875 9.75C10.875 9.84946 10.8355 9.94484 10.7652 10.0152C10.6948 10.0855 10.5995 10.125 10.5 10.125H1.5C1.40054 10.125 1.30516 10.0855 1.23483 10.0152C1.16451 9.94484 1.125 9.84946 1.125 9.75V2.25C1.125 2.15054 1.16451 2.05516 1.23483 1.98484C1.30516 1.91451 1.40054 1.875 1.5 1.875C1.59946 1.875 1.69484 1.91451 1.76516 1.98484C1.83549 2.05516 1.875 2.15054 1.875 2.25V2.84484L4.5 5.46984L5.73469 4.23469C5.76951 4.19982 5.81087 4.17216 5.8564 4.15329C5.90192 4.13442 5.95072 4.1247 6 4.1247C6.04928 4.1247 6.09808 4.13442 6.1436 4.15329C6.18913 4.17216 6.23049 4.19982 6.26531 4.23469L9 6.96984V6C9 5.90054 9.03951 5.80516 9.10983 5.73484C9.18016 5.66451 9.27554 5.625 9.375 5.625C9.47446 5.625 9.56984 5.66451 9.64017 5.73484C9.71049 5.80516 9.75 5.90054 9.75 6V7.875C9.75072 7.88749 9.75072 7.90001 9.75 7.9125C9.75 7.91766 9.75 7.92234 9.74766 7.9275C9.74531 7.93266 9.74766 7.94156 9.74438 7.94906C9.74336 7.95493 9.74195 7.96073 9.74016 7.96641C9.74016 7.9725 9.73734 7.97859 9.73547 7.98469C9.73359 7.99078 9.73172 7.99547 9.72984 8.00109L9.72328 8.01937L9.71625 8.03391C9.71344 8.04 9.71062 8.04656 9.70734 8.05266C9.70406 8.05875 9.70219 8.06109 9.69984 8.06578L9.68859 8.08406L9.67875 8.09719L9.66656 8.11359C9.66141 8.12016 9.65531 8.12625 9.64969 8.13234L9.64219 8.14078L9.63422 8.14781C9.628 8.15397 9.62142 8.15976 9.61453 8.16516C9.60974 8.16932 9.60473 8.17323 9.59953 8.17688L9.58547 8.18719L9.56766 8.19797C9.56313 8.2009 9.55843 8.20356 9.55359 8.20594L9.53625 8.21484L9.52031 8.22187L9.50344 8.22797C9.49765 8.23042 9.4917 8.23245 9.48563 8.23406L9.46875 8.23875C9.46219 8.23875 9.45656 8.24203 9.45 8.24297L9.43031 8.24625L9.41391 8.24859C9.40157 8.24929 9.38921 8.24929 9.37687 8.24859H7.5C7.40054 8.24859 7.30516 8.20909 7.23483 8.13876C7.16451 8.06843 7.125 7.97305 7.125 7.87359C7.125 7.77414 7.16451 7.67875 7.23483 7.60843C7.30516 7.5381 7.40054 7.49859 7.5 7.49859H8.46984L6 5.03016L4.76531 6.26531C4.73049 6.30018 4.68913 6.32784 4.6436 6.34671C4.59808 6.36558 4.54928 6.37529 4.5 6.37529C4.45072 6.37529 4.40192 6.36558 4.3564 6.34671C4.31087 6.32784 4.26951 6.30018 4.23469 6.26531L1.875 3.90516V9.375H10.5C10.5995 9.375 10.6948 9.41451 10.7652 9.48483C10.8355 9.55516 10.875 9.65054 10.875 9.75Z" fill="#DC6803"/>
</svg>
