<svg width="32" height="32" viewBox="0 0 32 32" fill="none" xmlns="http://www.w3.org/2000/svg">
<path opacity="0.2" d="M11.975 7.02501C12.4644 7.51451 12.7978 8.13815 12.9328 8.81707C13.0678 9.49599 12.9985 10.1997 12.7335 10.8392C12.4686 11.4788 12.02 12.0254 11.4445 12.4099C10.8689 12.7945 10.1922 12.9998 9.5 12.9998C8.80778 12.9998 8.13111 12.7945 7.55554 12.4099C6.97998 12.0254 6.53137 11.4788 6.26646 10.8392C6.00154 10.1997 5.93221 9.49599 6.06723 8.81707C6.20224 8.13815 6.53555 7.51451 7.025 7.02501C7.35001 6.69997 7.73586 6.44213 8.16053 6.26621C8.58519 6.0903 9.04034 5.99976 9.5 5.99976C9.95966 5.99976 10.4148 6.0903 10.8395 6.26621C11.2641 6.44213 11.65 6.69997 11.975 7.02501ZM24.975 20.025C24.4855 19.5356 23.8619 19.2023 23.1829 19.0672C22.504 18.9322 21.8003 19.0015 21.1608 19.2665C20.5213 19.5314 19.9747 19.98 19.5901 20.5556C19.2055 21.1311 19.0003 21.8078 19.0003 22.5C19.0003 23.1922 19.2055 23.8689 19.5901 24.4445C19.9747 25.02 20.5213 25.4686 21.1608 25.7336C21.8003 25.9985 22.504 26.0678 23.1829 25.9328C23.8619 25.7978 24.4855 25.4645 24.975 24.975C25.3 24.65 25.5579 24.2641 25.7338 23.8395C25.9097 23.4148 26.0003 22.9597 26.0003 22.5C26.0003 22.0404 25.9097 21.5852 25.7338 21.1605C25.5579 20.7359 25.3 20.35 24.975 20.025Z" fill="#7A5AF8"/>
<path d="M25.7075 7.70497L7.7075 25.705C7.51986 25.8926 7.26536 25.998 7 25.998C6.73464 25.998 6.48014 25.8926 6.2925 25.705C6.10486 25.5173 5.99944 25.2628 5.99944 24.9975C5.99944 24.7321 6.10486 24.4776 6.2925 24.29L24.2925 6.28997C24.48 6.10233 24.7343 5.99685 24.9996 5.99673C25.2648 5.99661 25.5192 6.10187 25.7069 6.28935C25.8945 6.47682 26 6.73116 26.0001 6.9964C26.0002 7.26165 25.895 7.51608 25.7075 7.70372V7.70497ZM6.3175 12.68C5.47361 11.8359 4.99959 10.6912 4.99971 9.49765C4.99982 8.3041 5.47407 7.15948 6.31812 6.3156C7.16218 5.47171 8.30689 4.99769 9.50044 4.9978C10.694 4.99792 11.8386 5.47217 12.6825 6.31622C13.5264 7.16027 14.0004 8.30499 14.0003 9.49854C14.0002 10.6921 13.5259 11.8367 12.6819 12.6806C11.8378 13.5245 10.6931 13.9985 9.49956 13.9984C8.30601 13.9983 7.16139 13.524 6.3175 12.68ZM7 9.49997C7.00032 9.91103 7.102 10.3157 7.29603 10.6781C7.49006 11.0404 7.77045 11.3494 8.11238 11.5775C8.45431 11.8057 8.84722 11.946 9.25632 11.9861C9.66542 12.0262 10.0781 11.9647 10.4578 11.8073C10.8375 11.6498 11.1725 11.4011 11.4331 11.0832C11.6938 10.7654 11.872 10.3882 11.9521 9.98497C12.0322 9.58178 12.0116 9.16507 11.8922 8.77174C11.7728 8.37841 11.5582 8.02059 11.2675 7.72997C10.9177 7.3803 10.4721 7.14223 9.98697 7.04589C9.50185 6.94955 8.99906 6.99927 8.54221 7.18875C8.08536 7.37824 7.69497 7.69898 7.42045 8.11038C7.14593 8.52179 6.99961 9.00538 7 9.49997ZM27 22.5C26.9998 23.5411 26.6386 24.5499 25.9779 25.3545C25.3173 26.1591 24.3981 26.7098 23.377 26.9127C22.3558 27.1155 21.296 26.9581 20.3779 26.4671C19.4598 25.9762 18.7404 25.1821 18.3422 24.2202C17.944 23.2583 17.8916 22.188 18.194 21.1918C18.4964 20.1956 19.1349 19.3351 20.0006 18.7569C20.8663 18.1786 21.9058 17.9185 22.9418 18.0207C23.9779 18.1229 24.9465 18.5812 25.6825 19.3175C26.1017 19.7344 26.4339 20.2304 26.6601 20.7767C26.8863 21.323 27.0018 21.9087 27 22.5ZM25 22.5C25.0001 21.9216 24.7997 21.361 24.4329 20.9139C24.066 20.4667 23.5555 20.1605 22.9882 20.0476C22.421 19.9346 21.8321 20.0219 21.3219 20.2944C20.8118 20.567 20.4119 21.008 20.1905 21.5423C19.969 22.0766 19.9397 22.6712 20.1075 23.2247C20.2753 23.7782 20.6299 24.2565 21.1107 24.5779C21.5916 24.8993 22.169 25.044 22.7446 24.9874C23.3203 24.9308 23.8585 24.6764 24.2675 24.2675C24.5004 24.0359 24.685 23.7605 24.8108 23.4571C24.9365 23.1537 25.0008 22.8284 25 22.5Z" fill="#3E1C96"/>
</svg>
