<svg width="8" height="8" viewBox="0 0 8 8" fill="none" xmlns="http://www.w3.org/2000/svg">
<path d="M6.17719 5.82406C6.22385 5.87092 6.25004 5.93435 6.25004 6.00047C6.25004 6.06659 6.22385 6.13002 6.17719 6.17688C6.14313 6.21031 5.33813 7 4 7C2.83156 7 1.98344 6.3 1.5 5.75469V6.5C1.5 6.5663 1.47366 6.62989 1.42678 6.67678C1.37989 6.72366 1.3163 6.75 1.25 6.75C1.1837 6.75 1.12011 6.72366 1.07322 6.67678C1.02634 6.62989 1 6.5663 1 6.5V5C1 4.9337 1.02634 4.87011 1.07322 4.82322C1.12011 4.77634 1.1837 4.75 1.25 4.75H2.75C2.8163 4.75 2.87989 4.77634 2.92678 4.82322C2.97366 4.87011 3 4.9337 3 5C3 5.0663 2.97366 5.12989 2.92678 5.17678C2.87989 5.22366 2.8163 5.25 2.75 5.25H1.7325C2.1175 5.72969 2.90625 6.5 4 6.5C5.125 6.5 5.81687 5.82938 5.82375 5.8225C5.87084 5.77586 5.93452 5.74982 6.00079 5.75011C6.06707 5.75041 6.13052 5.77701 6.17719 5.82406ZM6.75 1.25C6.6837 1.25 6.62011 1.27634 6.57322 1.32322C6.52634 1.37011 6.5 1.4337 6.5 1.5V2.24531C6.01656 1.7 5.16844 1 4 1C2.66188 1 1.85688 1.78969 1.82313 1.82313C1.77613 1.86995 1.74967 1.93353 1.74955 1.99987C1.74943 2.06621 1.77567 2.12988 1.8225 2.17688C1.86933 2.22387 1.9329 2.25033 1.99925 2.25045C2.06559 2.25057 2.12926 2.22433 2.17625 2.1775C2.18313 2.17062 2.875 1.5 4 1.5C5.09375 1.5 5.8825 2.27031 6.2675 2.75H5.25C5.1837 2.75 5.12011 2.77634 5.07322 2.82322C5.02634 2.87011 5 2.9337 5 3C5 3.0663 5.02634 3.12989 5.07322 3.17678C5.12011 3.22366 5.1837 3.25 5.25 3.25H6.75C6.8163 3.25 6.87989 3.22366 6.92678 3.17678C6.97366 3.12989 7 3.0663 7 3V1.5C7 1.4337 6.97366 1.37011 6.92678 1.32322C6.87989 1.27634 6.8163 1.25 6.75 1.25Z" fill="#98A2B3"/>
</svg>
