<svg width="32" height="32" viewBox="0 0 32 32" fill="none" xmlns="http://www.w3.org/2000/svg">
<path opacity="0.2" d="M28 16.1713C27.91 22.6338 22.635 27.9088 16.1725 27.9988H16V21C17.2563 21.0019 18.4672 20.5308 19.392 19.6804C20.3167 18.8301 20.8874 17.6628 20.9906 16.4107C21.0938 15.1587 20.7219 13.9137 19.9489 12.9234C19.1759 11.9331 18.0584 11.2701 16.8187 11.0663C16.5881 11.0258 16.3793 10.9048 16.2294 10.725C16.0795 10.5451 15.9982 10.3179 16 10.0838V5C15.9995 4.86133 16.0279 4.72407 16.0833 4.59694C16.1387 4.46981 16.2199 4.3556 16.3219 4.26156C16.4238 4.16751 16.5441 4.0957 16.6753 4.05067C16.8065 4.00564 16.9456 3.98839 17.0837 4C23.2587 4.5575 28.0875 9.83125 28 16.1713Z" fill="#04BF8A"/>
<path d="M17.1737 3.0075C16.8975 2.98341 16.6193 3.01703 16.3567 3.10622C16.0941 3.19541 15.853 3.33823 15.6486 3.5256C15.4442 3.71297 15.281 3.9408 15.1693 4.19462C15.0576 4.44844 15 4.72271 15 5V10.0838C14.9965 10.5555 15.1614 11.013 15.465 11.3741C15.7686 11.7351 16.1909 11.9761 16.6562 12.0538C17.3997 12.1785 18.0928 12.5108 18.6556 13.0123C19.2184 13.5138 19.628 14.1642 19.8372 14.8884C20.0465 15.6126 20.0468 16.3812 19.8382 17.1056C19.6295 17.83 19.2205 18.4807 18.6581 18.9827C18.0957 19.4847 17.4029 19.8176 16.6595 19.9429C15.9162 20.0683 15.1526 19.981 14.4566 19.6912C13.7607 19.4014 13.1609 18.9208 12.7262 18.3049C12.2916 17.689 12.0398 16.9628 12 16.21C11.9487 15.1825 12.1587 14.335 12.625 13.6775C12.899 13.2953 13.0282 12.828 12.9895 12.3593C12.9508 11.8906 12.7468 11.4509 12.4137 11.1188L8.96125 7.585C8.76445 7.3882 8.52875 7.23463 8.26921 7.13413C8.00967 7.03363 7.73202 6.98841 7.454 7.00135C7.17599 7.01429 6.90373 7.08511 6.65466 7.20929C6.40558 7.33347 6.18516 7.50827 6.0075 7.7225C3.92372 10.22 2.85606 13.4102 3.01679 16.6588C3.17752 19.9075 4.55487 22.9767 6.875 25.2563C9.30099 27.6631 12.5826 29.0095 16 29H16.1862C19.5669 28.9425 22.793 27.5738 25.1837 25.1828C27.5744 22.7919 28.9428 19.5657 29 16.185C29.0937 9.3975 23.8987 3.61 17.1737 3.0075ZM7.54 8.9925L10.9912 12.5163V12.5238C10.479 13.2589 10.1572 14.1098 10.055 15H5.045C5.24527 12.7901 6.11577 10.6941 7.54 8.9925ZM5.04625 17H10.0837C10.2911 18.2287 10.8759 19.3623 11.7569 20.2435C12.6379 21.1247 13.7714 21.7098 15 21.9175V26.955C12.4388 26.721 10.0406 25.597 8.22209 23.7783C6.40363 21.9596 5.27991 19.5612 5.04625 17ZM23.7675 23.7675C21.9562 25.5914 19.56 26.7187 17 26.9513V21.9175C18.1588 21.7243 19.2344 21.1924 20.0912 20.3888C20.9102 19.6257 21.4995 18.6488 21.7923 17.5684C22.0851 16.488 22.0699 15.3472 21.7483 14.275C21.4267 13.2028 20.8116 12.242 19.9725 11.5011C19.1334 10.7602 18.1038 10.2688 17 10.0825V5C22.69 5.51 27.0837 10.41 27 16.1563C26.9607 19.0187 25.8001 21.7516 23.7675 23.7675Z" fill="#00525B"/>
</svg>
